<svg xmlns="http://www.w3.org/2000/svg" viewBox="0 0 256 256"><g opacity="1"><g transform="translate(3.0,4.0)" opacity="0.55"><rect x="48" y="58" width="84" height="60" rx="10" fill="none" stroke="#3f4855" stroke-width="10"/><rect x="64" y="76" width="52" height="9" rx="4.5" fill="#3f4855" opacity="0.95"/><rect x="160" y="44" width="50" height="40" rx="8" fill="none" stroke="#3f4855" stroke-width="9"/><rect x="160" y="108" width="50" height="40" rx="8" fill="none" stroke="#3f4855" stroke-width="9"/><path d="M132 88 C 148 88, 148 64, 160 64" fill="none" stroke="#3f4855" stroke-width="9" stroke-linecap="round" stroke-linejoin="round"/><path d="M132 88 C 148 88, 148 128, 160 128" fill="none" stroke="#3f4855" stroke-width="9" stroke-linecap="round" stroke-linejoin="round"/><line x1="90.0" y1="118.0" x2="90.0" y2="172.0" stroke="#3f4855" stroke-width="9" stroke-linecap="round"/><rect x="48" y="172" width="162" height="36" rx="10" fill="none" stroke="#3f4855" stroke-width="10"/><rect x="68" y="184" width="72" height="9" rx="4.5" fill="#3f4855" opacity="0.6"/><circle cx="172.0" cy="120.0" r="7.0" fill="#3f4855"/></g><rect x="48" y="58" width="84" height="60" rx="10" fill="none" stroke="#e2695d" stroke-width="10"/><rect x="64" y="76" width="52" height="9" rx="4.5" fill="#e2695d" opacity="0.95"/><rect x="160" y="44" width="50" height="40" rx="8" fill="none" stroke="#e2695d" stroke-width="9"/><rect x="160" y="108" width="50" height="40" rx="8" fill="none" stroke="#e2695d" stroke-width="9"/><path d="M132 88 C 148 88, 148 64, 160 64" fill="none" stroke="#e2695d" stroke-width="9" stroke-linecap="round" stroke-linejoin="round"/><path d="M132 88 C 148 88, 148 128, 160 128" fill="none" stroke="#e2695d" stroke-width="9" stroke-linecap="round" stroke-linejoin="round"/><line x1="90.0" y1="118.0" x2="90.0" y2="172.0" stroke="#e2695d" stroke-width="9" stroke-linecap="round"/><rect x="48" y="172" width="162" height="36" rx="10" fill="none" stroke="#e2695d" stroke-width="10"/><rect x="68" y="184" width="72" height="9" rx="4.5" fill="#e2695d" opacity="0.6"/><circle cx="172.0" cy="120.0" r="7.0" fill="#f0c674"/></g></svg>